<?xml version="1.0" encoding="UTF-8" standalone="no"?>
<svg
   data-v-423bf9ae=""
   viewBox="0 0 820.9391 60"
   class="iconLeft"
   version="1.1"
   id="svg10"
   sodipodi:docname="header.svg"
   inkscape:export-filename="C:\Users\Caio\Documents\Projects\geo-site\src\resources\banner.png"
   inkscape:export-xdpi="47.210388"
   inkscape:export-ydpi="47.210388"
   width="820.93909"
   height="60"
   inkscape:version="1.1.1 (3bf5ae0d25, 2021-09-20)"
   xmlns:inkscape="http://www.inkscape.org/namespaces/inkscape"
   xmlns:sodipodi="http://sodipodi.sourceforge.net/DTD/sodipodi-0.dtd"
   xmlns="http://www.w3.org/2000/svg"
   xmlns:svg="http://www.w3.org/2000/svg">
  <defs
     id="defs14" />
  <sodipodi:namedview
     id="namedview12"
     pagecolor="#ffffff"
     bordercolor="#666666"
     borderopacity="1.0"
     inkscape:pageshadow="2"
     inkscape:pageopacity="0.0"
     inkscape:pagecheckerboard="0"
     showgrid="true"
     fit-margin-top="0"
     fit-margin-left="0"
     fit-margin-right="0"
     fit-margin-bottom="0"
     inkscape:zoom="2"
     inkscape:cx="122.25"
     inkscape:cy="17.25"
     inkscape:window-width="1920"
     inkscape:window-height="1017"
     inkscape:window-x="-8"
     inkscape:window-y="-8"
     inkscape:window-maximized="1"
     inkscape:current-layer="svg10">
    <inkscape:grid
       type="xygrid"
       id="grid153"
       originx="-333.81819"
       originy="-150" />
  </sodipodi:namedview>
  <!---->
  <!---->
  <!---->
  <g
     data-v-423bf9ae=""
     id="1e48a133-528b-4039-acbc-28158e9198da"
     fill="#ffffff"
     transform="matrix(5.8252426,0,0,5.8252426,77.346848,-18.116502)">
    <path
       d="M 9.9,3.42 V 3.39 H 6.51 V 3.42 C 6.85,3.65 7.22,4.33 7.22,5.49 V 7.22 H 3.5 V 5.49 C 3.5,4.34 3.89,3.65 4.21,3.42 V 3.39 H 0.83 v 0.03 c 0.36,0.23 0.75,0.91 0.75,2.07 v 5.53 c 0,1.15 -0.4,1.83 -0.75,2.07 v 0.03 H 4.21 V 13.09 C 3.88,12.85 3.5,12.18 3.5,11.02 v -2.4 h 3.72 v 2.45 c 0,1.1 -0.39,1.78 -0.71,2.02 v 0.03 H 9.9 V 13.09 C 9.53,12.85 9.14,12.18 9.14,11.07 V 5.49 C 9.14,4.34 9.55,3.65 9.9,3.42 Z m 1.65,9.7 h 3.44 V 13.09 C 14.63,12.85 14.24,12.18 14.24,11.02 V 5.49 c 0,-1.15 0.4,-1.84 0.75,-2.07 V 3.39 h -3.44 v 0.03 c 0.36,0.23 0.76,0.91 0.76,2.07 v 5.53 c 0,1.15 -0.41,1.83 -0.76,2.07 z m 8.01,0.21 c 2.27,-0.03 3.41,-1.3 3.41,-2.86 0,-2.1 -1.48,-2.71 -2.73,-3.23 -0.91,-0.38 -1.69,-0.7 -1.69,-1.51 0,-0.72 0.55,-1.08 1.61,-1.08 0.81,0 1.61,0.22 2.21,1.15 H 22.4 L 22.22,3.5 c -0.81,-0.21 -1.47,-0.29 -2.2,-0.29 -2.17,0 -3.36,1.27 -3.36,2.66 0,1.94 1.36,2.52 2.58,3.02 0.95,0.39 1.8,0.76 1.8,1.72 0,0.76 -0.49,1.23 -1.62,1.26 -1.15,0.03 -2.06,-0.38 -2.9,-1.47 l -0.03,0.02 0.24,2.35 c 0.63,0.38 1.69,0.57 2.83,0.56 z M 31.26,3.28 c -0.64,0.08 -1.23,0.11 -1.92,0.11 h -3.41 c -0.69,0 -1.28,-0.03 -1.92,-0.11 l -0.24,2.56 0.03,0.01 c 0.32,-0.56 0.98,-1.03 1.82,-1.03 h 1.06 v 6.09 c 0,1.19 -0.44,1.94 -0.85,2.18 v 0.03 h 3.63 V 13.09 C 28.99,12.85 28.6,12.11 28.6,10.91 V 4.82 h 1.05 c 0.84,0 1.5,0.47 1.82,1.03 L 31.5,5.84 Z m 6.12,10.12 c 3.12,0 5.21,-2.13 5.21,-5.25 0,-3.01 -2,-5.04 -5,-5.04 -3.23,0 -5.19,2.08 -5.19,5.23 0,2.87 1.84,5.06 4.98,5.06 z m 0.14,-1.46 c -2,0 -3.04,-1.44 -3.04,-3.74 0,-2.18 1.12,-3.64 2.97,-3.64 1.9,0 3.05,1.36 3.05,3.73 0,2.24 -1.26,3.65 -2.98,3.65 z M 50.95,11.23 49.64,9.11 c 1.18,-0.37 1.91,-1.28 1.91,-2.77 0,-1.82 -1.3,-2.95 -3.54,-2.95 h -3.98 v 0.03 c 0.36,0.23 0.76,0.91 0.76,2.01 v 5.59 c 0,1.15 -0.4,1.83 -0.76,2.07 v 0.03 h 3.37 v -0.03 c -0.3,-0.24 -0.7,-0.91 -0.7,-2.02 v -6.3 l 0.98,-0.01 c 1.21,-0.01 1.88,0.63 1.88,1.65 0,1.25 -0.67,1.74 -1.88,1.74 h -0.67 l 2.17,3.71 c 0.31,0.52 0.53,1.01 0.72,1.55 l 2.87,-0.52 v -0.02 c -0.68,-0.23 -1.29,-0.79 -1.82,-1.64 z m 2.33,1.89 h 3.45 V 13.09 C 56.36,12.85 55.97,12.18 55.97,11.02 V 5.49 c 0,-1.15 0.41,-1.84 0.76,-2.07 V 3.39 h -3.45 v 0.03 c 0.37,0.23 0.76,0.91 0.76,2.07 v 5.53 c 0,1.15 -0.41,1.83 -0.76,2.07 z M 65.9,10.82 63.84,5.05 C 63.55,4.23 63.83,3.65 64.09,3.42 V 3.39 h -3.71 v 0.03 c 0.27,0.22 0.53,0.81 0.25,1.63 l -2,5.77 c -0.38,1.08 -0.98,1.93 -1.36,2.27 v 0.03 h 2.94 v -0.03 c -0.19,-0.18 -0.33,-0.76 0.03,-1.72 l 0.13,-0.34 h 3.61 l 0.13,0.34 c 0.35,0.96 0.23,1.54 0,1.72 v 0.03 h 3.16 V 13.09 C 66.88,12.77 66.28,11.9 65.9,10.82 Z M 62.13,5.25 h 0.06 c 0.14,1.08 0.49,2.02 0.81,2.93 l 0.52,1.48 h -2.69 l 0.52,-1.48 c 0.32,-0.91 0.66,-1.85 0.78,-2.93 z m 13.53,8.11 c 2.7,0 4.01,-1.4 4.01,-4.25 V 5.49 c 0,-1.16 0.4,-1.84 0.76,-2.07 V 3.39 h -3.36 v 0.03 c 0.31,0.23 0.71,0.92 0.71,2.07 v 3.78 c 0,1.79 -0.61,2.62 -1.97,2.62 -1.53,0 -2.1,-0.72 -2.1,-2.62 V 5.49 c 0,-1.16 0.39,-1.84 0.71,-2.07 V 3.39 h -3.4 v 0.03 c 0.35,0.23 0.76,0.92 0.76,2.07 v 3.62 c 0,2.86 1.38,4.25 3.88,4.25 z M 88.68,11.23 87.37,9.11 c 1.18,-0.37 1.91,-1.28 1.91,-2.77 0,-1.82 -1.3,-2.95 -3.54,-2.95 h -3.98 v 0.03 c 0.36,0.23 0.76,0.91 0.76,2.01 v 5.59 c 0,1.15 -0.4,1.83 -0.76,2.07 v 0.03 h 3.37 v -0.03 c -0.3,-0.24 -0.7,-0.91 -0.7,-2.02 v -6.3 l 0.98,-0.01 c 1.21,-0.01 1.88,0.63 1.88,1.65 0,1.25 -0.67,1.74 -1.88,1.74 h -0.67 l 2.17,3.71 c 0.31,0.52 0.53,1.01 0.72,1.55 L 90.5,12.89 V 12.87 C 89.82,12.64 89.21,12.08 88.68,11.23 Z M 96.4,7.94 V 7.9 c 0.82,-0.13 1.61,-1 1.61,-2.06 0,-1.67 -1.06,-2.45 -3.16,-2.45 h -3.86 v 0.03 c 0.44,0.3 0.82,0.99 0.82,2.14 v 5.37 c 0,1.26 -0.47,1.89 -0.82,2.16 v 0.03 h 4.25 c 1.91,0 3.28,-1.05 3.28,-2.87 0,-1.14 -0.95,-2.17 -2.12,-2.31 z M 94.74,4.76 c 0.82,0 1.3,0.38 1.3,1.18 0,0.89 -0.49,1.34 -1.3,1.34 H 93.73 V 4.76 Z m 0.22,6.99 H 93.73 V 8.64 h 1.23 c 1.05,0 1.56,0.61 1.56,1.54 0,0.92 -0.51,1.57 -1.56,1.57 z m 5.04,1.37 h 3.45 v -0.03 c -0.37,-0.24 -0.76,-0.91 -0.76,-2.07 V 5.49 c 0,-1.15 0.41,-1.84 0.76,-2.07 V 3.39 H 100 v 0.03 c 0.37,0.23 0.76,0.91 0.76,2.07 v 5.53 c 0,1.15 -0.41,1.83 -0.76,2.07 z m 9.41,0.24 c 2.7,0 4.02,-1.4 4.02,-4.25 V 5.49 c 0,-1.16 0.39,-1.84 0.75,-2.07 V 3.39 h -3.36 v 0.03 c 0.31,0.23 0.72,0.92 0.72,2.07 v 3.78 c 0,1.79 -0.62,2.62 -1.98,2.62 -1.52,0 -2.1,-0.72 -2.1,-2.62 V 5.49 c 0,-1.16 0.4,-1.84 0.72,-2.07 V 3.39 h -3.4 v 0.03 c 0.35,0.23 0.75,0.92 0.75,2.07 v 3.62 c 0,2.86 1.39,4.25 3.88,4.25 z m 5.74,-0.24 h 3.08 l 0.01,-0.03 c -0.26,-0.24 -0.5,-0.85 -0.46,-1.74 l 0.16,-2.89 c 0.02,-0.61 0.02,-1.36 -0.09,-2.41 h 0.06 c 0.26,0.98 0.56,1.64 1.01,2.36 l 1.66,2.66 c 0.52,0.83 0.66,1.39 0.7,1.68 h 0.11 c 0.03,-0.29 0.16,-0.85 0.66,-1.69 l 1.56,-2.63 c 0.46,-0.79 0.78,-1.44 1.07,-2.38 h 0.06 c -0.13,1.02 -0.14,1.75 -0.08,2.41 l 0.22,2.89 c 0.07,0.89 -0.2,1.5 -0.46,1.74 l 0.01,0.03 h 3.21 l 0.01,-0.03 c -0.5,-0.5 -0.77,-1.36 -0.82,-2.03 l -0.44,-5.43 c -0.05,-0.77 0.18,-1.86 0.81,-2.21 l -0.01,-0.03 h -3.23 c 0.16,0.21 0.14,0.61 -0.21,1.23 l -1.38,2.42 c -0.46,0.81 -0.82,1.46 -1.03,2.31 h -0.06 C 121.16,8.55 120.85,7.8 120.41,7.04 L 119.03,4.66 C 118.66,4.03 118.64,3.6 118.8,3.39 h -3.2 l -0.02,0.03 c 0.63,0.37 0.82,1.44 0.76,2.21 l -0.36,5.43 c -0.07,0.98 -0.4,1.54 -0.84,2.03 z"
       id="path2" />
  </g>
  <!---->
  <g
     data-v-423bf9ae=""
     id="885afcab-8b08-4c53-8e0e-0fbbc738cb35"
     transform="matrix(0.3030303,0,0,0.33333333,-34.5,-22.699998)"
     stroke="none"
     fill="#ffd009">
    <style
       id="style5" />
    <path
       d="m 266.85,68.099995 h -108 c -24.8,0 -45,20.2 -45,45.000005 0,24.8 20.2,45 45,45 24.8,0 45,-20.2 45,-45 h -18 c 0,14.9 -12.1,27 -27,27 -14.9,0 -27,-12.1 -27,-27 0,-14.900001 12.1,-27.000005 27,-27.000005 h 108 c 14.9,0 27,12.100004 27,27.000005 0,14.9 -12.1,27 -27,27 -14.9,0 -27,-12.1 -27,-27 h -18 c 0,24.8 20.2,45 45,45 24.8,0 45,-20.2 45,-45 0,-24.800005 -20.2,-45.000005 -45,-45.000005 z M 149.85,185.1 h 18 v 63 h 18 v -63 h 18 v 63 h 18 v -63 h 18 v 63 h 18 v -63 h 18 l 9,-18 h -144 z"
       id="path7" />
  </g>
  <!---->
</svg>
